<?xml version="1.0" encoding="utf-8"?>
<!-- Generator: Adobe Illustrator 16.0.0, SVG Export Plug-In . SVG Version: 6.00 Build 0)  -->
<!DOCTYPE svg PUBLIC "-//W3C//DTD SVG 1.1//EN" "http://www.w3.org/Graphics/SVG/1.1/DTD/svg11.dtd">
<svg version="1.1" id="Layer_1" xmlns="http://www.w3.org/2000/svg" xmlns:xlink="http://www.w3.org/1999/xlink" x="0px" y="0px"
	 width="430.796px" height="158.921px" viewBox="0 0 430.796 158.921" enable-background="new 0 0 430.796 158.921"
	 xml:space="preserve">
<g>
	<g>
		<path d="M49.168,94.087c0,0-0.139-0.869-0.403-2.492c-0.277-1.643-0.703-4.054-1.315-7.119c-1.244-6.111-3.137-14.872-6.43-24.987
			c-1.664-5.033-3.682-10.433-6.46-15.672c-1.387-2.61-2.993-5.172-4.899-7.407c-1.906-2.212-4.179-4.069-6.626-4.731
			c-2.416-0.674-5.101-0.025-7.677,1.608c-1.262,0.773-2.559,1.85-3.731,2.962c-1.123,1.064-2.232,2.302-3.145,3.608
			c-3.79,5.237-4.783,12.205-3.718,19.014c1.033,6.843,3.655,13.534,6.697,19.854c3.061,6.335,6.612,12.353,10.151,18.122
			c3.525,5.785,7.136,11.274,10.12,16.827c3.029,5.601,4.465,11.534,5.141,16.956c0.649,5.449,0.506,10.514-0.228,14.907
			c-0.743,4.371-2.099,8.147-4.166,10.64c-1.02,1.244-2.25,2.103-3.449,2.47c-1.199,0.38-2.291,0.304-3.123,0.139
			c-0.836-0.175-1.44-0.443-1.843-0.613c-0.39-0.192-0.595-0.291-0.595-0.291s0.21,0.095,0.608,0.273
			c0.407,0.151,1.016,0.402,1.848,0.546c0.827,0.134,1.896,0.17,3.042-0.237c1.15-0.394,2.304-1.257,3.253-2.492
			c1.919-2.487,3.127-6.228,3.708-10.55c0.577-4.331,0.55-9.319-0.268-14.63c-0.851-5.297-2.416-10.97-5.535-16.231
			c-3.105-5.311-6.917-10.666-10.67-16.34c-3.771-5.659-7.588-11.607-10.975-17.987c-3.36-6.377-6.375-13.218-7.803-20.683
			c-0.689-3.722-0.926-7.617-0.371-11.496c0.532-3.872,1.933-7.684,4.075-10.965c1.074-1.656,2.287-3.125,3.674-4.546
			c1.337-1.36,2.715-2.597,4.393-3.718c1.642-1.096,3.49-2.036,5.548-2.553c2.049-0.523,4.308-0.579,6.384-0.083
			c4.206,1.024,7.306,3.646,9.727,6.248c2.42,2.667,4.304,5.51,5.928,8.338c3.23,5.668,5.512,11.274,7.423,16.482
			c3.763,10.44,5.973,19.35,7.449,25.605c0.733,3.129,1.248,5.601,1.593,7.299c0.331,1.716,0.505,2.634,0.505,2.634L49.168,94.087z"
			/>
	</g>
</g>
<g>
	<path d="M62.42,28.759c-0.209-1.659-0.419-3.319-0.629-4.978c-0.25-1.98-0.089-3.896,0.491-5.752
		c0.581-1.856,1.485-3.518,2.712-4.98c1.228-1.464,2.739-2.684,4.537-3.659c1.798-0.972,3.766-1.584,5.894-1.826
		c0.962-0.109,1.923-0.217,2.886-0.325c2.131-0.237,4.183-0.077,6.151,0.472c1.968,0.551,3.715,1.405,5.234,2.56
		c1.521,1.153,2.767,2.573,3.745,4.254c0.978,1.681,1.565,3.513,1.761,5.499c0.164,1.665,0.328,3.329,0.492,4.994
		c0.196,1.986-0.02,3.897-0.636,5.737c-0.617,1.839-1.537,3.477-2.764,4.911c-1.226,1.437-2.72,2.626-4.48,3.571
		c-1.761,0.948-3.674,1.538-5.747,1.769c-0.936,0.104-1.871,0.209-2.807,0.315c-2.07,0.235-4.069,0.085-5.997-0.448
		c-1.928-0.53-3.646-1.358-5.163-2.486c-1.515-1.126-2.78-2.517-3.791-4.174C63.301,32.555,62.671,30.739,62.42,28.759z
		 M74.115,29.429c0.157,1.343,0.777,2.42,1.862,3.231c1.084,0.817,2.329,1.142,3.74,0.983c0.084-0.009,0.169-0.019,0.253-0.028
		c1.412-0.159,2.553-0.752,3.428-1.789c0.875-1.032,1.243-2.221,1.098-3.564c-0.333-3.086-0.667-6.172-1.001-9.259
		c-0.146-1.345-0.763-2.426-1.854-3.245c-1.091-0.819-2.354-1.15-3.788-0.989c-0.086,0.01-0.171,0.019-0.257,0.029
		c-1.433,0.161-2.592,0.765-3.474,1.806c-0.884,1.041-1.244,2.231-1.087,3.576C73.395,23.262,73.755,26.346,74.115,29.429z"/>
	<path d="M101.483,38.517c-1.043-10.985-2.085-21.97-3.128-32.955c3.026-0.288,6.054-0.563,9.082-0.829
		c4.039,4.555,8.037,9.128,11.993,13.722c0.042,0.11,0.085,0.221,0.128,0.331c-0.392-4.987-0.785-9.975-1.177-14.962
		c3.34-0.263,6.68-0.512,10.021-0.747c0.776,11.007,1.552,22.014,2.328,33.021c-3.018,0.213-6.034,0.437-9.05,0.672
		c-3.823-4.493-7.687-8.969-11.59-13.426c-0.06-0.107-0.12-0.215-0.18-0.323c0.423,4.872,0.846,9.743,1.269,14.615
		C107.945,37.917,104.714,38.21,101.483,38.517z"/>
	<path d="M136.463,35.708c-0.724-11.011-1.448-22.021-2.171-33.032c8.871-0.583,17.746-1.071,26.625-1.463
		c-0.232,2.554-0.462,5.108-0.69,7.662c-4.952,0.223-9.904,0.476-14.854,0.759c0.092,1.605,0.184,3.211,0.275,4.817
		c4.743-0.271,9.488-0.515,14.233-0.73c0.112,2.459,0.224,4.918,0.335,7.377c-4.717,0.215-9.433,0.457-14.148,0.726
		c0.102,1.783,0.204,3.566,0.306,5.349c4.879-0.279,9.761-0.528,14.643-0.748c0.456,2.62,0.91,5.239,1.362,7.859
		C153.736,34.666,145.097,35.141,136.463,35.708z"/>
	<path d="M198.294,16.144c4.477,0.87,6.728,3.608,6.766,8.177c0.022,2.443-0.898,4.535-2.747,6.273
		c-1.848,1.743-4.096,2.634-6.746,2.678c-6.415,0.107-12.829,0.266-19.242,0.475c-0.36-11.028-0.72-22.057-1.081-33.085
		c6.485-0.211,12.97-0.373,19.457-0.483c2.589-0.043,4.79,0.716,6.602,2.271c1.843,1.554,2.771,3.46,2.792,5.713
		c0.031,3.313-1.163,5.606-3.566,6.891c-0.712,0.362-1.457,0.663-2.237,0.898C198.292,16.016,198.293,16.08,198.294,16.144z
		 M185.544,13.063c1.963-0.048,3.926-0.092,5.889-0.131c0.717-0.014,1.318-0.258,1.807-0.735c0.485-0.474,0.726-1.049,0.713-1.725
		c-0.005-0.273-0.01-0.547-0.015-0.821c-0.012-0.675-0.272-1.241-0.776-1.7c-0.507-0.456-1.12-0.679-1.841-0.665
		c-1.972,0.039-3.944,0.083-5.916,0.131C185.452,9.3,185.499,11.182,185.544,13.063z M185.858,25.797
		c2.146-0.053,4.291-0.1,6.436-0.142c0.71-0.014,1.305-0.255,1.788-0.731c0.481-0.474,0.718-1.048,0.707-1.724
		c-0.005-0.29-0.01-0.58-0.015-0.871c-0.012-0.675-0.269-1.244-0.768-1.7c-0.501-0.457-1.108-0.68-1.821-0.667
		c-2.155,0.042-4.311,0.089-6.466,0.142C185.765,22.002,185.811,23.899,185.858,25.797z"/>
	<path d="M209.059,22.601c-0.042-7.527-0.083-15.055-0.125-22.582c3.64-0.021,7.28-0.024,10.92-0.013
		c-0.024,7.48-0.049,14.959-0.073,22.439c-0.003,1.06,0.394,1.929,1.182,2.608c0.796,0.679,1.761,1.023,2.907,1.031
		c1.152,0.008,2.127-0.324,2.923-0.993c0.806-0.668,1.209-1.532,1.22-2.592c0.075-7.479,0.149-14.959,0.225-22.438
		c3.624,0.036,7.249,0.088,10.873,0.156c-0.141,7.526-0.282,15.052-0.423,22.579c-0.062,3.315-1.369,5.958-3.89,7.945
		c-2.456,1.957-5.753,2.91-9.917,2.878c-0.723-0.005-1.444-0.01-2.167-0.014c-4.159-0.023-7.448-1.02-9.875-3.009
		C210.341,28.576,209.078,25.917,209.059,22.601z"/>
	<path d="M242.404,8.248c0.057-2.653,0.113-5.307,0.171-7.959c9.591,0.207,19.18,0.524,28.766,0.953
		c-0.118,2.651-0.237,5.302-0.355,7.953c-2.981-0.133-5.962-0.255-8.944-0.367c-0.313,8.375-0.627,16.75-0.94,25.124
		c-3.491-0.131-6.981-0.247-10.473-0.347c0.241-8.377,0.482-16.754,0.724-25.131C248.369,8.387,245.386,8.312,242.404,8.248z"/>
	<path d="M272.524,9.264c0.122-2.651,0.243-5.302,0.365-7.953c9.585,0.441,19.166,0.992,28.741,1.655
		c-0.183,2.647-0.366,5.295-0.549,7.942c-2.979-0.206-5.956-0.401-8.936-0.585c-0.518,8.364-1.035,16.729-1.554,25.093
		c-3.487-0.216-6.976-0.417-10.464-0.602c0.445-8.369,0.891-16.738,1.336-25.106C278.485,9.549,275.504,9.401,272.524,9.264z"/>
	<path d="M301.892,22.139c0.117-1.668,0.235-3.337,0.353-5.005c0.141-1.991,0.671-3.839,1.601-5.547s2.137-3.162,3.624-4.356
		c1.484-1.198,3.207-2.1,5.157-2.706c1.948-0.604,4.001-0.821,6.136-0.644c0.963,0.08,1.925,0.161,2.888,0.243
		c2.135,0.183,4.116,0.739,5.938,1.661c1.819,0.924,3.368,2.101,4.634,3.531c1.265,1.427,2.212,3.062,2.849,4.902
		c0.627,1.838,0.845,3.75,0.65,5.736c-0.163,1.665-0.326,3.329-0.489,4.994c-0.195,1.986-0.778,3.819-1.736,5.503
		c-0.969,1.684-2.19,3.11-3.671,4.278c-1.482,1.17-3.182,2.046-5.089,2.63c-1.909,0.587-3.901,0.793-5.979,0.616
		c-0.936-0.08-1.872-0.159-2.808-0.237c-2.077-0.172-4.012-0.709-5.794-1.607c-1.784-0.896-3.312-2.042-4.574-3.444
		c-1.266-1.399-2.231-3.01-2.899-4.832C302.016,26.033,301.751,24.129,301.892,22.139z M313.217,25.072
		c-0.107,1.347,0.29,2.526,1.195,3.532c0.901,1.012,2.062,1.573,3.477,1.693c0.084,0.007,0.169,0.014,0.254,0.021
		c1.414,0.12,2.644-0.241,3.706-1.087c1.061-0.841,1.651-1.936,1.771-3.282c0.273-3.092,0.548-6.184,0.821-9.276
		c0.119-1.349-0.273-2.528-1.186-3.544c-0.912-1.017-2.082-1.586-3.519-1.708c-0.085-0.007-0.171-0.015-0.257-0.022
		c-1.438-0.121-2.694,0.245-3.759,1.095c-1.069,0.849-1.653,1.946-1.762,3.296C313.712,18.884,313.464,21.978,313.217,25.072z"/>
	<path d="M338.283,39.317c1.117-10.978,2.234-21.956,3.351-32.933c3.024,0.308,6.049,0.626,9.071,0.957
		c3.078,5.254,6.112,10.52,9.102,15.796c0.02,0.117,0.04,0.233,0.06,0.35c0.587-4.968,1.174-9.937,1.761-14.905
		c3.329,0.394,6.657,0.8,9.983,1.22c-1.383,10.948-2.766,21.895-4.148,32.842c-3.005-0.379-6.01-0.748-9.017-1.104
		c-2.879-5.153-5.799-10.295-8.762-15.427c-0.038-0.118-0.076-0.235-0.114-0.353c-0.534,4.861-1.067,9.721-1.602,14.582
		C344.74,39.987,341.512,39.645,338.283,39.317z"/>
	<path d="M77.525,75.525c-0.197-1.661-0.394-3.322-0.59-4.983c-0.235-1.981-0.076-3.896,0.489-5.741
		c0.563-1.851,1.438-3.499,2.621-4.946c1.186-1.448,2.642-2.647,4.374-3.6c1.732-0.952,3.625-1.54,5.673-1.756
		c0.925-0.098,1.85-0.195,2.775-0.29c2.049-0.212,4.021-0.029,5.912,0.544c1.888,0.574,3.565,1.445,5.021,2.617
		c1.459,1.17,2.65,2.603,3.584,4.296c0.933,1.689,1.489,3.528,1.67,5.515c0.151,1.666,0.302,3.332,0.454,4.997
		c0.18,1.987-0.034,3.896-0.633,5.728c-0.6,1.832-1.488,3.459-2.674,4.874c-1.182,1.424-2.623,2.597-4.315,3.522
		c-1.694,0.927-3.533,1.49-5.524,1.696c-0.899,0.093-1.798,0.187-2.697,0.282c-1.988,0.21-3.907,0.041-5.757-0.515
		s-3.498-1.404-4.953-2.553c-1.451-1.139-2.663-2.546-3.628-4.215C78.36,79.33,77.76,77.506,77.525,75.525z M88.76,76.337
		c0.146,1.342,0.739,2.428,1.779,3.254c1.038,0.826,2.232,1.167,3.589,1.025c0.081-0.009,0.162-0.017,0.242-0.025
		c1.357-0.142,2.455-0.723,3.299-1.746s1.201-2.208,1.066-3.552c-0.31-3.089-0.619-6.178-0.929-9.267
		c-0.135-1.346-0.724-2.435-1.77-3.264c-1.045-0.834-2.258-1.177-3.638-1.033c-0.082,0.008-0.164,0.017-0.246,0.026
		c-1.379,0.144-2.495,0.731-3.345,1.763c-0.854,1.028-1.203,2.214-1.057,3.56C88.087,70.165,88.424,73.251,88.76,76.337z"/>
	<path d="M115.014,85.737c-0.958-10.992-1.915-21.984-2.872-32.976c2.91-0.253,5.821-0.497,8.733-0.729
		c3.863,4.598,7.684,9.214,11.463,13.848c0.041,0.11,0.082,0.22,0.122,0.33c-0.354-4.99-0.707-9.98-1.061-14.971
		c3.211-0.227,6.423-0.442,9.635-0.643c0.69,11.012,1.381,22.023,2.072,33.036c-2.898,0.182-5.795,0.375-8.692,0.578
		c-3.649-4.531-7.339-9.045-11.069-13.542c-0.058-0.109-0.116-0.218-0.174-0.328c0.385,4.875,0.77,9.749,1.155,14.623
		C121.222,85.208,118.117,85.466,115.014,85.737z"/>
	<path d="M148.613,83.3c-0.639-11.015-1.277-22.03-1.915-33.045c8.529-0.494,17.062-0.897,25.598-1.208
		c-0.239,2.551-0.475,5.103-0.709,7.655c-4.76,0.177-9.519,0.384-14.277,0.618c0.079,1.606,0.158,3.213,0.238,4.819
		c4.559-0.225,9.118-0.423,13.679-0.595c0.093,2.459,0.186,4.919,0.279,7.379c-4.532,0.171-9.063,0.368-13.594,0.592
		c0.088,1.784,0.176,3.567,0.264,5.351c4.688-0.231,9.377-0.435,14.066-0.609c0.422,2.623,0.842,5.246,1.26,7.869
		C165.203,82.428,156.906,82.82,148.613,83.3z"/>
	<path d="M186.898,81.715c-0.274-11.03-0.549-22.06-0.824-33.09c8.223-0.205,16.448-0.325,24.672-0.359
		c-0.321,2.623-0.64,5.247-0.956,7.87c-4.464,0.023-8.928,0.071-13.391,0.144c0.029,1.801,0.059,3.603,0.088,5.404
		c4.131-0.068,8.263-0.114,12.395-0.138c0.015,2.477,0.029,4.954,0.044,7.431c-4.106,0.024-8.211,0.07-12.317,0.137
		c0.067,4.132,0.135,8.265,0.203,12.397C193.507,81.564,190.203,81.633,186.898,81.715z"/>
	<path d="M214.077,81.356c-0.016-11.034-0.033-22.067-0.049-33.101c8.539-0.013,17.079,0.066,25.616,0.236
		c-0.381,2.534-0.76,5.068-1.137,7.603c-4.761-0.091-9.522-0.153-14.284-0.187c-0.012,1.608-0.023,3.217-0.034,4.825
		c4.562,0.032,9.122,0.091,13.684,0.176c-0.047,2.461-0.092,4.922-0.139,7.383c-4.532-0.085-9.064-0.143-13.598-0.175
		c-0.013,1.786-0.025,3.572-0.038,5.357c4.691,0.033,9.383,0.095,14.073,0.184c0.273,2.643,0.544,5.285,0.812,7.928
		C230.683,81.42,222.38,81.344,214.077,81.356z"/>
	<path d="M241.612,56.499c0.058-2.654,0.115-5.308,0.173-7.962c9.221,0.2,18.438,0.508,27.653,0.921
		c-0.119,2.652-0.238,5.304-0.357,7.956c-2.864-0.129-5.729-0.247-8.594-0.355c-0.315,8.373-0.631,16.746-0.946,25.119
		c-3.353-0.126-6.706-0.238-10.06-0.335c0.243-8.375,0.485-16.75,0.729-25.126C247.343,56.633,244.478,56.561,241.612,56.499z"/>
	<path d="M270.417,82.639c0.112-2.377,0.224-4.755,0.336-7.133c1.311,0.062,2.621,0.125,3.932,0.192
		c0.316-6.28,0.633-12.561,0.949-18.84c-1.331-0.067-2.663-0.132-3.994-0.195c0.111-2.362,0.223-4.725,0.333-7.088
		c6.195,0.292,12.39,0.631,18.581,1.02c-0.148,2.36-0.296,4.721-0.444,7.082c-1.332-0.083-2.664-0.165-3.996-0.244
		c-0.373,6.277-0.745,12.554-1.117,18.831c1.312,0.078,2.622,0.158,3.934,0.24c-0.149,2.375-0.298,4.751-0.447,7.126
		C282.463,83.252,276.442,82.922,270.417,82.639z"/>
	<path d="M308.44,58.725c-2.727-0.213-4.146,0.361-4.247,1.708c-0.059,0.801,0.348,1.438,1.221,1.905
		c0.872,0.472,1.967,0.917,3.281,1.342c1.434,0.436,2.867,0.875,4.299,1.316c3.498,1.097,5.97,2.799,7.41,5.093
		c0.771,1.294,1.062,2.952,0.881,4.971c-0.186,2.052-0.699,3.767-1.538,5.143c-0.84,1.379-1.949,2.477-3.319,3.292
		c-2.635,1.581-6.261,2.176-10.89,1.817c-3.985-0.309-7.205-1.391-9.667-3.274c-2.742-2.117-4.004-4.891-3.781-8.327
		c0.013-0.193,0.025-0.386,0.038-0.579c0.013-0.192,0.039-0.383,0.088-0.575c3.152,0.206,6.305,0.424,9.456,0.655
		c-0.041,0.127-0.072,0.352-0.095,0.671c-0.026,0.354,0.018,0.744,0.132,1.172c0.113,0.428,0.32,0.815,0.621,1.158
		c0.728,0.765,1.732,1.195,3.029,1.294c1.296,0.099,2.255,0.118,2.881,0.054c0.627-0.063,1.107-0.176,1.446-0.343
		c0.575-0.277,0.892-0.767,0.949-1.473c0.058-0.705-0.335-1.287-1.182-1.741c-0.845-0.457-1.925-0.881-3.237-1.273
		c-1.306-0.391-2.721-0.828-4.241-1.31c-1.521-0.484-2.921-1.14-4.202-1.97c-2.977-1.981-4.349-4.841-4.102-8.599
		c0.219-3.336,1.807-5.879,4.78-7.608c2.704-1.555,6.159-2.177,10.367-1.849c4.034,0.315,7.227,1.393,9.568,3.208
		c2.556,2.03,3.669,4.716,3.369,8.046c-0.017,0.192-0.034,0.384-0.052,0.577c-3.146-0.282-6.292-0.552-9.439-0.809
		c0.005-0.064,0.011-0.128,0.016-0.192c0.068-0.833-0.182-1.598-0.757-2.29C310.95,59.247,309.922,58.841,308.44,58.725z"/>
	<path d="M324.39,86.44c1.031-10.985,2.062-21.971,3.094-32.956c3.47,0.326,6.938,0.667,10.404,1.023
		c-0.415,4.048-0.831,8.097-1.247,12.146c2.649,0.272,5.299,0.553,7.946,0.843c0.443-4.045,0.887-8.091,1.33-12.137
		c3.483,0.381,6.967,0.778,10.448,1.191c-1.298,10.957-2.597,21.914-3.895,32.871c-3.368-0.399-6.737-0.783-10.108-1.152
		c0.468-4.269,0.936-8.538,1.403-12.806c-2.63-0.289-5.261-0.568-7.893-0.838c-0.439,4.271-0.878,8.543-1.317,12.815
		C331.168,87.091,327.78,86.758,324.39,86.44z"/>
</g>
<g>
	<g>
		<path d="M373.79,92.794c0,0,0.175-0.918,0.506-2.634c0.345-1.698,0.858-4.169,1.593-7.299c1.477-6.255,3.687-15.165,7.449-25.605
			c1.91-5.208,4.191-10.814,7.422-16.482c1.624-2.828,3.508-5.671,5.928-8.338c2.421-2.602,5.521-5.223,9.727-6.248
			c2.076-0.497,4.336-0.441,6.385,0.083c2.059,0.517,3.906,1.457,5.548,2.553c1.678,1.121,3.056,2.357,4.394,3.718
			c1.387,1.42,2.6,2.89,3.673,4.546c2.144,3.281,3.544,7.093,4.076,10.965c0.555,3.879,0.317,7.774-0.372,11.496
			c-1.427,7.465-4.442,14.306-7.802,20.683c-3.388,6.38-7.203,12.328-10.976,17.987c-3.753,5.674-7.564,11.029-10.67,16.34
			c-3.118,5.262-4.685,10.935-5.534,16.231c-0.819,5.311-0.846,10.299-0.269,14.63c0.582,4.322,1.789,8.062,3.709,10.55
			c0.948,1.235,2.103,2.099,3.252,2.492c1.146,0.407,2.215,0.371,3.043,0.237c0.832-0.144,1.44-0.395,1.848-0.546
			c0.398-0.179,0.608-0.273,0.608-0.273s-0.206,0.099-0.595,0.291c-0.402,0.17-1.007,0.438-1.844,0.613
			c-0.832,0.165-1.924,0.241-3.123-0.139c-1.199-0.367-2.429-1.226-3.449-2.47c-2.066-2.492-3.422-6.269-4.165-10.64
			c-0.733-4.394-0.877-9.458-0.229-14.907c0.676-5.422,2.112-11.355,5.141-16.956c2.984-5.553,6.595-11.042,10.12-16.827
			c3.539-5.77,7.092-11.787,10.152-18.122c3.042-6.319,5.664-13.01,6.697-19.854c1.064-6.809,0.071-13.777-3.718-19.014
			c-0.913-1.306-2.022-2.543-3.146-3.608c-1.172-1.112-2.47-2.188-3.731-2.962c-2.577-1.633-5.261-2.282-7.677-1.608
			c-2.447,0.662-4.721,2.519-6.627,4.731c-1.905,2.235-3.512,4.796-4.898,7.407c-2.778,5.239-4.797,10.639-6.461,15.672
			c-3.293,10.116-5.186,18.876-6.429,24.987c-0.613,3.065-1.038,5.476-1.315,7.119c-0.264,1.623-0.402,2.492-0.402,2.492
			L373.79,92.794z"/>
	</g>
</g>
</svg>
